<?xml version="1.0" encoding="UTF-8"?><svg id="a" xmlns="http://www.w3.org/2000/svg" width="96.91" height="96.91" xmlns:xlink="http://www.w3.org/1999/xlink" viewBox="0 0 96.91 96.91"><defs><style>.d{fill:none;}.e{fill:#f63395;}.f{fill:#f63394;}.g{fill:#f9318f;}.h{fill:#f93190;}.i{fill:#fa318d;}.j{fill:#fa318e;}.k{fill:#f53396;}.l{fill:#f53397;}.m{fill:#fc2f89;}.n{fill:#fc308a;}.o{fill:#fb308c;}.p{fill:#fb308b;}.q{fill:#ed37a5;}.r{fill:#f1359e;}.s{fill:#f1359d;}.t{fill:#ee37a3;}.u{fill:#ee37a4;}.v{fill:#f3359b;}.w{fill:#f3349a;}.x{fill:#ed38a6;}.y{fill:#f73292;}.a`{fill:#f73293;}.aa{fill:#eb38a9;}.ab{fill:#f83291;}.ac{fill:#ff3a7d;}.ad{fill:#ff3c7c;}.ae{fill:#ff397e;}.af{fill:#ff536f;}.ag{fill:#ff526f;}.ah{fill:#ff576c;}.ai{fill:#ff546e;}.aj{fill:#ff49c5;}.ak{fill:#ff5170;}.al{fill:#ff566d;}.am{fill:#ff4b73;}.an{fill:#ff586c;}.ao{fill:#ff556e;}.ap{fill:#ff4a74;}.aq{fill:#ff4975;}.ar{fill:#ff4c73;}.as{fill:#ea39aa;}.at{fill:#ea39ab;}.au{fill:#ec38a8;}.av{fill:#ec38a7;}.aw{fill:#e939ac;}.ax{fill:#e93aad;}.ay{fill:#e63bb3;}.b`{fill:#e63bb2;}.ba{fill:#f036a0;}.bb{fill:#f0369f;}.bc{fill:#fff;}.bd{fill:#f43498;}.be{fill:#f43499;}.bf{fill:#ef37a2;}.bg{fill:#ef36a1;}.bh{fill:#fe2f86;}.bi{fill:#fe2e85;}.bj{fill:#e83aaf;}.bk{fill:#e83aae;}.bl{fill:#e53cb4;}.bm{fill:#fd2f88;}.bn{fill:#fd2f87;}.bo{fill:#ff3e7b;}.bp{fill:#ff3f7a;}.bq{fill:#ff3182;}.br{fill:#ff3d7c;}.bs{fill:#ff407a;}.bt{fill:#ff3282;}.bu{fill:#ff3580;}.bv{fill:#ff3381;}.bw{fill:#ff3680;}.bx{fill:#ff3481;}.by{fill:#ff377f;}.c`{fill:#ff4378;}.ca{fill:#ff387f;}.cb{fill:#ff4d72;}.cc{fill:#ff4e72;}.cd{fill:#ff5071;}.ce{fill:#ff4179;}.cf{fill:#ff4776;}.cg{fill:#ff4279;}.ch{fill:#ff4478;}.ci{fill:#ff4676;}.cj{fill:#ff3b7d;}.ck{fill:#ff4f71;}.cl{fill:#ff4875;}.cm{fill:#ff4577;}.cn{fill:#f2359c;}.co{fill:#e73bb1;}.cp{fill:#e73ab0;}.cq{fill:#ff2f83;}.cr{fill:#ff2e84;}.cs{fill:#ff3083;}.ct{fill:#ff5c6a;}.cu{fill:#ff5e69;}.cv{fill:#ff5d69;}.cw{fill:#ff6465;}.cx{fill:#ff5f68;}.cy{fill:#ff6068;}.d`{fill:#ff6266;}.da{fill:#ff6167;}.db{fill:#ff6664;}.dc{fill:#ff6366;}.dd{fill:#ff6565;}.de{fill:#ff596b;}.df{fill:#ff5a6b;}.dg{fill:#c44df2;}.dh{fill:#c34df3;}.di{fill:#c34df4;}.dj{fill:#d047dc;}.dk{fill:#d046db;}.dl{fill:#cf47dd;}.dm{fill:#cf47de;}.dn{fill:#c14ef7;}.do{fill:#c14ff8;}.dp{fill:#be50fd;}.dq{fill:#da41c9;}.dr{fill:#da42ca;}.ds{fill:#c24ef5;}.dt{fill:#c24ef6;}.du{fill:#bf4ffb;}.dv{fill:#bf50fc;}.dw{fill:#d942cb;}.dx{fill:#d942cc;}.dy{fill:#c04ffa;}.e`{fill:#c04ff9;}.ea{fill:#ce48df;}.eb{fill:#ce48e0;}.ec{fill:#cc49e4;}.ed{fill:#cc49e3;}.ee{fill:#cb49e5;}.ef{fill:#d246d9;}.eg{fill:#d246d8;}.eh{fill:#d146da;}.ei{fill:#c94ae9;}.ej{fill:#c94ae8;}.ek{fill:#e03ebd;}.el{fill:#e03ebe;}.em{fill:#cd48e2;}.en{fill:#cd48e1;}.eo{fill:#d444d4;}.ep{fill:#d445d5;}.eq{fill:#d345d6;}.er{fill:#d345d7;}.es{fill:#c84bea;}.et{fill:#c54cf0;}.eu{fill:#c84beb;}.ev{fill:#c64cee;}.ew{fill:#c64cef;}.ex{fill:#c54df1;}.ey{fill:#c74bec;}.f`{fill:#c74bed;}.fa{fill:#d643d0;}.fb{fill:#de3fc2;}.fc{fill:#dc40c6;}.fd{fill:#dc40c5;}.fe{fill:#d544d2;}.ff{fill:#d544d3;}.fg{fill:#db41c8;}.fh{fill:#db41c7;}.fi{fill:#d644d1;}.fj{fill:#e23dba;}.fk{fill:#e23db9;}.fl{fill:#dd40c4;}.fm{fill:#dd40c3;}.fn{fill:#e43cb6;}.fo{fill:#e43cb5;}.fp{fill:#e13ebb;}.fq{fill:#e13ebc;}.fr{fill:#e33db8;}.fs{fill:#df3fc1;}.ft{fill:#df3fbf;}.fu{fill:#e33cb7;}.fv{fill:#ca4ae7;}.fw{fill:#ca49e6;}.fx{fill:#d743ce;}.fy{fill:#d743cf;}.g`{fill:#d842cd;}.ga{clip-path:url(#c);}.gb{clip-path:url(#b);}</style><clipPath id="b"><path d="M58.4,44.77c-1.14,1.8-5.27,3.48-7.27,2.03-.68-.49-.43-3.53,3.03-5.81,3.51-2.32,5.97,1.06,4.24,3.78Zm-15.65-3.78c-3.51-2.32-5.97,1.06-4.24,3.78,1.14,1.8,5.27,3.48,7.27,2.03,.68-.49,.43-3.53-3.03-5.81Zm5.7-19.18c-14.69,0-26.65,11.95-26.65,26.65,0,5.35,1.58,10.34,4.31,14.52h0c2.09-2.72,4.68-5.05,7.59-6.84,.01-1.73,.99-4.31,4.02-5.38-2.17-2.17-4.2-4.23-3.54-9.81,.53-4.47,4.28-11.84,14.26-11.84s13.73,7.37,14.26,11.84c.66,5.57-1.37,7.64-3.54,9.81,1.52,.53,2.52,1.45,3.14,2.44,.62,.99,.87,2.07,.88,2.94,2.91,1.8,5.5,4.13,7.59,6.85h0c2.73-4.18,4.31-9.17,4.31-14.52,0-14.69-11.95-26.65-26.65-26.65Z" style="fill:none;"/></clipPath><clipPath id="c"><path d="M62.92,57.75c2.66,1.72,5.03,3.92,6.96,6.52-4.86,6.56-12.65,10.82-21.43,10.82-4.39,0-8.53-1.07-12.18-2.95-3.65-1.88-6.82-4.59-9.25-7.87,1.93-2.61,4.3-4.8,6.96-6.52,.32,1.15,.62,1.68,.62,1.68,0,0-.22,1.8,.57,3.16,0,0,.14,2.85,1.76,2.43,1.68-.37,.71-2.54-.08-3.18,0,0,.03-1.8-.38-2.79,0,0,.29-1.01,.22-1.65,0,0,.7-.63,1.04,0,0,0,.06,1.42,.82,2.37,0,0,0,1.74,.76,2.69,0,0,.11,2.69,1.72,2.14,1.56-.43,.21-2.56-.13-2.81,0,0,0-1.61-.63-2.5,0,0,.09-1.87-.28-2.72,0,0,.13-.47,.57-.03,0,0,.44,.98,1.27,1.65,0,0,.66,1.17,1.33,1.52-.05,.8,1.32,2.38,2.32,1.34,.67-.69-.45-2.16-1.28-2.39,0,0-.54-1.05-1.14-1.65,0,0-.29-1.14-.76-2.18,0,0,.12-.22,.2-.69,1.94-.45,3.94-.68,5.96-.68s4.02,.23,5.96,.68c.08,.46,.2,.69,.2,.69-.47,1.04-.76,2.18-.76,2.18-.6,.6-1.14,1.65-1.14,1.65-.83,.23-1.95,1.7-1.28,2.39,1,1.04,2.38-.54,2.32-1.34,.66-.35,1.33-1.52,1.33-1.52,.82-.66,1.27-1.65,1.27-1.65,.44-.44,.57,.03,.57,.03-.38,.85-.28,2.72-.28,2.72-.63,.89-.63,2.5-.63,2.5-.35,.25-1.7,2.38-.13,2.81,1.6,.55,1.72-2.14,1.72-2.14,.76-.95,.76-2.69,.76-2.69,.76-.95,.82-2.37,.82-2.37,.35-.63,1.04,0,1.04,0-.06,.63,.22,1.65,.22,1.65-.41,.98-.38,2.79-.38,2.79-.79,.64-1.77,2.82-.08,3.18,1.63,.42,1.76-2.43,1.76-2.43,.79-1.36,.57-3.16,.57-3.16,0,0,.3-.53,.62-1.68Zm-1.9,12.21c.29-.85-.09-1.83-.99-2.57-.22-.18-.53-.14-.71,.07-.18,.22-.14,.53,.07,.71,.47,.38,.73,.85,.72,1.24-.11-.14-.23-.28-.37-.41-.41-.38-.94-.7-1.54-.91-.81-.28-1.63-.32-2.32-.14,.27-.38,.89-.59,1.64-.52,.28,.02,.52-.18,.54-.46s-.18-.52-.46-.54c-1.36-.11-2.45,.43-2.78,1.4-.08,.24-.11,.49-.09,.75l-.02,.02,.06,.21c.04,.18,.1,.37,.19,.55h0c.08,.16,.17,.31,.28,.45h.01s.05,.08,.08,.11h0v.02h.01s.03,.04,.05,.06h0l.02,.02s.04,.04,.06,.06h0s.04,.05,.07,.07l.03,.03s.03,.03,.05,.05c.02,.02,.05,.05,.07,.07,.04,.03,.07,.06,.11,.09h0v.02h.02l.04,.03h.02s.06,.06,.09,.08c.02,.02,.04,.03,.06,.04,.01,.01,.03,.02,.04,.03l.03,.02h.02s.03,.03,.05,.05c.04,.03,.08,.05,.12,.08,.09,.05,.18,.1,.27,.15,.04,.02,.09,.04,.14,.07h0s.08,.04,.12,.06l.04,.02s.07,.03,.11,.04l.04,.02s.07,.02,.1,.04h.02c.49,.18,.98,.26,1.44,.26,.74,0,1.4-.21,1.86-.6h.02l.18-.15v-.03h0c.17-.19,.3-.4,.39-.64Zm-10.77-11.51c.75-.32,1.22-.86,1.22-1.5,0-.8-.76-1.48-1.94-1.72-.27-.06-.54,.12-.6,.39-.06,.27,.12,.54,.39,.6,.71,.15,1.14,.49,1.14,.73,0,.05-.02,.11-.06,.17-.45-.32-1.11-.51-1.82-.51s-1.37,.19-1.82,.51c-.04-.06-.06-.12-.06-.17,0-.2,.3-.5,.89-.67,.27-.08,.42-.36,.34-.63-.08-.27-.36-.42-.63-.34-.99,.3-1.6,.92-1.6,1.64,0,.64,.47,1.18,1.22,1.5h0c.44,.27,1.03,.42,1.67,.42s1.23-.15,1.67-.42Zm-8.11,10.36l.06-.22-.02-.02c.02-.25,0-.5-.09-.74-.33-.96-1.43-1.51-2.78-1.4-.28,.02-.48,.27-.46,.54s.27,.48,.54,.46c.75-.06,1.37,.14,1.64,.52-.28-.07-.57-.11-.88-.11-.46,0-.95,.08-1.44,.25-.81,.28-1.48,.75-1.91,1.32-.01-.39,.25-.86,.72-1.24,.22-.18,.25-.49,.07-.71-.18-.22-.49-.25-.71-.07-.91,.74-1.29,1.72-.99,2.57,.08,.24,.21,.46,.39,.64h0v.03l.17,.13h0l.02,.02c.2,.16,.43,.29,.7,.39h.01s.07,.03,.11,.04h.03c.11,.04,.22,.07,.34,.09,.04,0,.07,.01,.11,.02,.04,0,.07,.01,.11,.02h0s.07,0,.11,.01c.04,0,.08,0,.11,0,.07,0,.15,0,.23,0,.06,0,.12,0,.18,0,.05,0,.11,0,.16-.01h.03c.05,0,.11-.01,.16-.02h0c.06,0,.12-.02,.18-.03,.04,0,.09-.02,.13-.03,.04,0,.07-.02,.11-.02,.04,0,.08-.02,.12-.03,.03,0,.06-.02,.09-.02,.09-.03,.18-.05,.27-.08,.04-.01,.08-.03,.11-.04,.01,0,.03,0,.04-.01h0l.05-.02s.04-.01,.05-.02h.01s.09-.04,.14-.06h0s.07-.04,.11-.05h.01l.02-.02s.06-.03,.09-.05h.02c.93-.5,1.57-1.26,1.73-2.05Z" style="fill:none;"/></clipPath></defs><path d="M48.45,96.91c-6.54,0-12.89-1.28-18.86-3.81-5.77-2.44-10.95-5.93-15.4-10.38s-7.94-9.63-10.38-15.4c-2.53-5.97-3.81-12.32-3.81-18.86s1.28-12.89,3.81-18.86c2.44-5.77,5.93-10.95,10.38-15.4S23.82,6.25,29.59,3.81c5.97-2.53,12.32-3.81,18.86-3.81s12.89,1.28,18.86,3.81c5.77,2.44,10.95,5.93,15.4,10.38,4.45,4.45,7.94,9.63,10.38,15.4,2.53,5.97,3.81,12.32,3.81,18.86s-1.28,12.89-3.81,18.86c-2.44,5.77-5.93,10.95-10.38,15.4-4.45,4.45-9.63,7.94-15.4,10.38-5.97,2.53-12.32,3.81-18.86,3.81Z" style="fill:#ff49c5;"/><path d="M48.45,95.64c-6.37,0-12.55-1.25-18.37-3.71-5.62-2.38-10.67-5.78-15-10.11-4.33-4.33-7.74-9.38-10.11-15-2.46-5.82-3.71-12-3.71-18.37s1.25-12.55,3.71-18.37c2.38-5.62,5.78-10.67,10.11-15,4.33-4.33,9.38-7.74,15-10.11,5.82-2.46,12-3.71,18.37-3.71s12.55,1.25,18.37,3.71c5.62,2.38,10.67,5.78,15,10.11,4.33,4.33,7.74,9.38,10.11,15,2.46,5.82,3.71,12,3.71,18.37s-1.25,12.55-3.71,18.37c-2.38,5.62-5.78,10.67-10.11,15-4.33,4.33-9.38,7.74-15,10.11-5.82,2.46-12,3.71-18.37,3.71Zm0-92.87C23.27,2.77,2.77,23.27,2.77,48.45s20.49,45.68,45.68,45.68,45.68-20.49,45.68-45.68S73.64,2.77,48.45,2.77Z"/><g><path d="M18.84,19.14c.71-.81,1.93-.91,2.75-.2l5.66,4.92-1.35,1.55-2.3-2-3.51,4.04,2.3,2-1.33,1.53-5.66-4.92c-.81-.71-.9-1.93-.19-2.74l3.64-4.19Zm3.22,2.93l-1.74-1.51-3.51,4.04,1.74,1.51,3.51-4.04Z"/><path d="M25.71,13.35l1.81-.92,3.36,6.6,6.6-3.36,.93,1.82-8.41,4.29-4.29-8.42Z"/><path d="M39.8,7.77l2.01-.39,1.79,9.27-2.01,.39-1.79-9.27Z"/><path d="M56.13,9.41l-6.64-.54-.13,1.65,5.35,.43-.16,2.04-5.35-.43-.13,1.65,6.64,.54-.16,2.04-8.69-.7,.76-9.41,8.69,.7-.16,2.04Z"/><path d="M69.51,12.49l1.84,.93-4.25,8.43-1.87-.94-1.9-8.03-2.84,5.64-1.82-.91,4.25-8.43,1.87,.94,1.89,8,2.83-5.62Z"/><path d="M80.9,26.73l-1.35-1.56,.59-.51-3.5-4.05-1.25,1.08,3.58,4.14c.69,.8,.61,2.03-.2,2.74l-1.41,1.22c-.81,.7-2.04,.6-2.74-.2l-3.64-4.21c-.7-.81-.61-2.03,.2-2.74l.66-.57,1.33,1.54-.59,.51,3.5,4.05,1.25-1.08-3.56-4.12c-.7-.81-.61-2.03,.2-2.74l1.41-1.22c.81-.7,2.03-.61,2.74,.2l3.64,4.21c.69,.8,.61,2.03-.2,2.74l-.66,.57Z"/></g><g><path d="M17.65,66.73l-.56-1.14,.43-.21-1.45-2.96-.91,.45,1.48,3.02c.29,.59,.05,1.31-.55,1.6l-1.03,.5c-.59,.29-1.31,.04-1.6-.55l-1.5-3.07c-.29-.59-.05-1.31,.55-1.6l.49-.24,.55,1.12-.43,.21,1.45,2.96,.91-.45-1.47-3.01c-.29-.59-.05-1.31,.55-1.6l1.03-.5c.59-.29,1.31-.05,1.6,.55l1.5,3.07c.29,.59,.05,1.31-.55,1.6l-.49,.24Z"/><path d="M23,71.01c.41,.52,.33,1.28-.19,1.68l-1.17,.93c-.51,.41-1.27,.32-1.68-.2l-2.1-2.62s0,.03-.02,.05c0,0-.01-.01,0-.02l-1.46,1.16-.78-.98,4.54-3.61,2.87,3.61Zm-4.15-.99l2.05,2.58,1.08-.86-2.05-2.58-1.08,.86Z"/><path d="M28.35,75.87c.51,.42,.59,1.17,.18,1.69l-2.92,3.58-.98-.8,1.18-1.45-2.55-2.08-1.18,1.45-.97-.79,2.92-3.58c.42-.51,1.17-.59,1.68-.17l2.64,2.16Zm-1.74,2.03l.9-1.1-2.55-2.08-.9,1.1,2.55,2.08Z"/><path d="M31.31,79.26l-1.47,2.95,4.07,2.03-.56,1.13-4.12-2.05c-.59-.3-.83-1.01-.54-1.6l1.53-3.06c.3-.59,1.01-.83,1.6-.54l4.12,2.05-.56,1.13-4.07-2.03Z"/><path d="M42.44,83.26l-3.98-1-.25,.99,3.2,.81-.31,1.22-3.2-.81-.25,.99,3.98,1-.31,1.22-5.2-1.31,1.42-5.63,5.2,1.31-.31,1.22Z"/><path d="M54.01,83.83l-1.26,.09-.03-.47-3.28,.24,.07,1.01,3.36-.25c.65-.05,1.23,.44,1.28,1.1l.08,1.14c.05,.66-.45,1.23-1.1,1.28l-3.41,.25c-.66,.05-1.23-.44-1.28-1.1l-.04-.54,1.25-.09,.03,.47,3.28-.24-.07-1.01-3.34,.24c-.66,.05-1.23-.44-1.28-1.1l-.08-1.14c-.05-.66,.44-1.23,1.1-1.28l3.41-.25c.65-.05,1.23,.44,1.28,1.1l.04,.54Z"/><path d="M58.05,85.79l3.15-.95-1.32-4.36,1.21-.37,1.33,4.42c.19,.63-.17,1.3-.8,1.49l-3.28,.99c-.63,.19-1.3-.16-1.49-.8l-1.33-4.42,1.2-.36,1.32,4.36Z"/><path d="M66.69,77.17c.58-.32,1.31-.12,1.63,.45l.74,1.31c.32,.57,.11,1.31-.46,1.63l-2.92,1.65s.03,0,.04,.03c0,0-.01,0-.03,0l.91,1.62-1.09,.61-2.85-5.06,4.02-2.26Zm-1.64,3.94l2.87-1.62-.68-1.2-2.87,1.62,.68,1.2Z"/><path d="M72.33,72.66c.5-.44,1.26-.39,1.69,.1l1,1.12c.43,.49,.39,1.25-.11,1.69l-2.51,2.23s.03,0,.05,.02c0,0-.01,.01-.02,.01l1.24,1.4-.94,.83-3.85-4.34,3.45-3.06Zm-.77,4.2l2.46-2.18-.92-1.03-2.46,2.18,.92,1.03Z"/><path d="M74.17,70.76l.75-1,3.66,2.72,2.72-3.66,1.01,.75-3.46,4.67-4.67-3.47Z"/><path d="M80.47,60.34l2.07,4.03,1.94,.96-.56,1.13-1.95-.96-1.74,.32c-.83,.15-1.95,.35-2.71,.48l.66-1.34,2.86-.62c-.4-.86-.84-1.79-1.25-2.64l.67-1.35Z"/></g><path d="M3.18,38.07c-2.08,8.86-1,16.71,.4,22.38l17.81-6.78-.18-8.5L3.18,38.07Z"/><path d="M93.83,38.07c2.08,8.86,1,16.71-.4,22.38l-17.81-6.78,.18-8.5,18.02-7.1Z"/><g><g><path d="M4.51,47.59h2.34v.66h-1.62v.72h1.32v.65h-1.32v.8h1.62v.66h-2.34v-3.47Z" style="fill:#ff49c5;"/><path d="M8.13,50.37v-.44h.7v.39c0,.07,.02,.1,.1,.1h.92c.07,0,.1-.02,.1-.1v-.42c0-.11-.04-.14-.17-.17l-.92-.2c-.44-.09-.71-.27-.71-.71v-.54c0-.47,.22-.7,.69-.7h1.07c.47,0,.69,.22,.69,.7v.4h-.69v-.35c0-.07-.02-.1-.1-.1h-.85c-.07,0-.1,.02-.1,.1v.38c0,.11,.04,.14,.17,.17l.92,.2c.44,.09,.71,.27,.71,.71v.58c0,.47-.22,.69-.7,.69h-1.14c-.47,0-.7-.22-.7-.69Z" style="fill:#ff49c5;"/><path d="M12.76,48.23h-.94v-.65h2.6v.65h-.94v2.83h-.71v-2.83Z" style="fill:#ff49c5;"/><path d="M15.19,50.29h.79v.77h-.79v-.77Z" style="fill:#ff49c5;"/></g><g><path d="M80.12,49.18l.8-.3c.13-.05,.2-.07,.2-.2v-.34c0-.07-.02-.1-.1-.1h-.78c-.07,0-.1,.02-.1,.1v.33h-.69v-.39c0-.47,.22-.7,.69-.7h1c.47,0,.7,.22,.7,.7v.56c0,.4-.29,.56-.71,.71l-.8,.3c-.13,.05-.2,.07-.2,.2v.36h1.73v.66h-2.44v-1.17c0-.4,.29-.56,.71-.71Z" style="fill:#ff49c5;"/><path d="M82.82,50.37v-2.08c0-.47,.22-.7,.7-.7h1.19c.47,0,.69,.22,.69,.7v2.08c0,.47-.22,.69-.69,.69h-1.19c-.47,0-.7-.22-.7-.69Zm.81,.04h.95c.07,0,.1-.02,.1-.1v-1.97c0-.07-.02-.1-.1-.1h-.95c-.07,0-.1,.02-.1,.1v1.97c0,.07,.02,.1,.1,.1Z" style="fill:#ff49c5;"/><path d="M87.11,49.18l.8-.3c.13-.05,.2-.07,.2-.2v-.34c0-.07-.02-.1-.1-.1h-.78c-.07,0-.1,.02-.1,.1v.33h-.7v-.39c0-.47,.22-.7,.7-.7h1c.47,0,.69,.22,.69,.7v.56c0,.4-.29,.56-.71,.71l-.8,.3c-.13,.05-.2,.07-.2,.2v.36h1.73v.66h-2.44v-1.17c0-.4,.29-.56,.71-.71Z" style="fill:#ff49c5;"/><path d="M91.2,50.35h-1.59l-.15-.59,1.78-2.17h.66v2.12h.5v.64h-.5v.71h-.7v-.71Zm0-.64v-1.09l-.86,1.09h.86Z" style="fill:#ff49c5;"/></g></g><g><g style="clip-path:url(#b);"><rect x="21.81" y="21.81" width="53.29" height="2.05" style="fill:#be50fd;"/><rect x="21.81" y="23.86" width="53.29" height=".32" style="fill:#be50fd;"/><rect x="21.81" y="24.18" width="53.29" height=".32" style="fill:#bf50fc;"/><rect x="21.81" y="24.51" width="53.29" height=".32" style="fill:#bf4ffb;"/><rect x="21.81" y="24.83" width="53.29" height=".32" style="fill:#c04ffa;"/><rect x="21.81" y="25.16" width="53.29" height=".32" style="fill:#c04ff9;"/><rect x="21.81" y="25.48" width="53.29" height=".32" style="fill:#c14ff8;"/><rect x="21.81" y="25.81" width="53.29" height=".32" style="fill:#c14ef7;"/><rect x="21.81" y="26.13" width="53.29" height=".32" style="fill:#c24ef6;"/><rect x="21.81" y="26.45" width="53.29" height=".32" style="fill:#c24ef5;"/><rect x="21.81" y="26.78" width="53.29" height=".32" style="fill:#c34df4;"/><rect x="21.81" y="27.1" width="53.29" height=".32" style="fill:#c34df3;"/><rect x="21.81" y="27.43" width="53.29" height=".32" style="fill:#c44df2;"/><rect x="21.81" y="27.75" width="53.29" height=".32" style="fill:#c54df1;"/><rect x="21.81" y="28.08" width="53.29" height=".32" style="fill:#c54cf0;"/><rect x="21.81" y="28.4" width="53.29" height=".32" style="fill:#c64cef;"/><rect x="21.81" y="28.73" width="53.29" height=".32" style="fill:#c64cee;"/><rect x="21.81" y="29.05" width="53.29" height=".32" style="fill:#c74bed;"/><rect x="21.81" y="29.37" width="53.29" height=".32" style="fill:#c74bec;"/><rect x="21.81" y="29.7" width="53.29" height=".32" style="fill:#c84beb;"/><rect x="21.81" y="30.02" width="53.29" height=".32" style="fill:#c84bea;"/><rect x="21.81" y="30.35" width="53.29" height=".32" style="fill:#c94ae9;"/><rect x="21.81" y="30.67" width="53.29" height=".32" style="fill:#c94ae8;"/><rect x="21.81" y="31" width="53.29" height=".32" style="fill:#ca4ae7;"/><rect x="21.81" y="31.32" width="53.29" height=".32" style="fill:#ca49e6;"/><rect x="21.81" y="31.65" width="53.29" height=".32" style="fill:#cb49e5;"/><rect x="21.81" y="31.97" width="53.29" height=".32" style="fill:#cc49e4;"/><rect x="21.81" y="32.29" width="53.29" height=".32" style="fill:#cc49e3;"/><rect x="21.81" y="32.62" width="53.29" height=".32" style="fill:#cd48e2;"/><rect x="21.81" y="32.94" width="53.29" height=".32" style="fill:#cd48e1;"/><rect x="21.81" y="33.27" width="53.29" height=".32" style="fill:#ce48e0;"/><rect x="21.81" y="33.59" width="53.29" height=".32" style="fill:#ce48df;"/><rect x="21.81" y="33.92" width="53.29" height=".32" style="fill:#cf47de;"/><rect x="21.81" y="34.24" width="53.29" height=".32" style="fill:#cf47dd;"/><rect x="21.81" y="34.57" width="53.29" height=".32" style="fill:#d047dc;"/><rect x="21.81" y="34.89" width="53.29" height=".32" style="fill:#d046db;"/><rect x="21.81" y="35.22" width="53.29" height=".32" style="fill:#d146da;"/><rect x="21.81" y="35.54" width="53.29" height=".32" style="fill:#d246d9;"/><rect x="21.81" y="35.86" width="53.29" height=".32" style="fill:#d246d8;"/><rect x="21.81" y="36.19" width="53.29" height=".32" style="fill:#d345d7;"/><rect x="21.81" y="36.51" width="53.29" height=".32" style="fill:#d345d6;"/><rect x="21.81" y="36.84" width="53.29" height=".32" style="fill:#d445d5;"/><rect x="21.81" y="37.16" width="53.29" height=".32" style="fill:#d444d4;"/><rect x="21.81" y="37.49" width="53.29" height=".32" style="fill:#d544d3;"/><rect x="21.81" y="37.81" width="53.29" height=".32" style="fill:#d544d2;"/><rect x="21.81" y="38.14" width="53.29" height=".32" style="fill:#d644d1;"/><rect x="21.81" y="38.46" width="53.29" height=".32" style="fill:#d643d0;"/><rect x="21.81" y="38.78" width="53.29" height=".32" style="fill:#d743cf;"/><rect x="21.81" y="39.11" width="53.29" height=".32" style="fill:#d743ce;"/><rect x="21.81" y="39.43" width="53.29" height=".32" style="fill:#d842cd;"/><rect x="21.81" y="39.76" width="53.29" height=".32" style="fill:#d942cc;"/><rect x="21.81" y="40.08" width="53.29" height=".32" style="fill:#d942cb;"/><rect x="21.81" y="40.41" width="53.29" height=".32" style="fill:#da42ca;"/><rect x="21.81" y="40.73" width="53.29" height=".32" style="fill:#da41c9;"/><rect x="21.81" y="41.06" width="53.29" height=".32" style="fill:#db41c8;"/><rect x="21.81" y="41.38" width="53.29" height=".32" style="fill:#db41c7;"/><rect x="21.81" y="41.7" width="53.29" height=".32" style="fill:#dc40c6;"/><rect x="21.81" y="42.03" width="53.29" height=".32" style="fill:#dc40c5;"/><rect x="21.81" y="42.35" width="53.29" height=".32" style="fill:#dd40c4;"/><rect x="21.81" y="42.68" width="53.29" height=".32" style="fill:#dd40c3;"/><rect x="21.81" y="43" width="53.29" height=".32" style="fill:#de3fc2;"/><rect x="21.81" y="43.33" width="53.29" height=".32" style="fill:#df3fc1;"/><rect x="21.81" y="43.65" width="53.29" height=".32" style="fill:#df3fbf;"/><rect x="21.81" y="43.98" width="53.29" height=".32" style="fill:#e03ebe;"/><rect x="21.81" y="44.3" width="53.29" height=".32" style="fill:#e03ebd;"/><rect x="21.81" y="44.62" width="53.29" height=".32" style="fill:#e13ebc;"/><rect x="21.81" y="44.95" width="53.29" height=".32" style="fill:#e13ebb;"/><rect x="21.81" y="45.27" width="53.29" height=".32" style="fill:#e23dba;"/><rect x="21.81" y="45.6" width="53.29" height=".32" style="fill:#e23db9;"/><rect x="21.81" y="45.92" width="53.29" height=".32" style="fill:#e33db8;"/><rect x="21.81" y="46.25" width="53.29" height=".32" style="fill:#e33cb7;"/><rect x="21.81" y="46.57" width="53.29" height=".32" style="fill:#e43cb6;"/><rect x="21.81" y="46.9" width="53.29" height=".32" style="fill:#e43cb5;"/><rect x="21.81" y="47.22" width="53.29" height=".32" style="fill:#e53cb4;"/><rect x="21.81" y="47.55" width="53.29" height=".32" style="fill:#e63bb3;"/><rect x="21.81" y="47.87" width="53.29" height=".32" style="fill:#e63bb2;"/><rect x="21.81" y="48.19" width="53.29" height=".32" style="fill:#e73bb1;"/><rect x="21.81" y="48.52" width="53.29" height=".32" style="fill:#e73ab0;"/><rect x="21.81" y="48.84" width="53.29" height=".32" style="fill:#e83aaf;"/><rect x="21.81" y="49.17" width="53.29" height=".32" style="fill:#e83aae;"/><rect x="21.81" y="49.49" width="53.29" height=".32" style="fill:#e93aad;"/><rect x="21.81" y="49.82" width="53.29" height=".32" style="fill:#e939ac;"/><rect x="21.81" y="50.14" width="53.29" height=".32" style="fill:#ea39ab;"/><rect x="21.81" y="50.47" width="53.29" height=".32" style="fill:#ea39aa;"/><rect x="21.81" y="50.79" width="53.29" height=".32" style="fill:#eb38a9;"/><rect x="21.81" y="51.11" width="53.29" height=".32" style="fill:#ec38a8;"/><rect x="21.81" y="51.44" width="53.29" height=".32" style="fill:#ec38a7;"/><rect x="21.81" y="51.76" width="53.29" height=".32" style="fill:#ed38a6;"/><rect x="21.81" y="52.09" width="53.29" height=".32" style="fill:#ed37a5;"/><rect x="21.81" y="52.41" width="53.29" height=".32" style="fill:#ee37a4;"/><rect x="21.81" y="52.74" width="53.29" height=".32" style="fill:#ee37a3;"/><rect x="21.81" y="53.06" width="53.29" height=".32" style="fill:#ef37a2;"/><rect x="21.81" y="53.39" width="53.29" height=".32" style="fill:#ef36a1;"/><rect x="21.81" y="53.71" width="53.29" height=".32" style="fill:#f036a0;"/><rect x="21.81" y="54.03" width="53.29" height=".32" style="fill:#f0369f;"/><rect x="21.81" y="54.36" width="53.29" height=".32" style="fill:#f1359e;"/><rect x="21.81" y="54.68" width="53.29" height=".32" style="fill:#f1359d;"/><rect x="21.81" y="55.01" width="53.29" height=".32" style="fill:#f2359c;"/><rect x="21.81" y="55.33" width="53.29" height=".32" style="fill:#f3359b;"/><rect x="21.81" y="55.66" width="53.29" height=".32" style="fill:#f3349a;"/><rect x="21.81" y="55.98" width="53.29" height=".32" style="fill:#f43499;"/><rect x="21.81" y="56.31" width="53.29" height=".32" style="fill:#f43498;"/><rect x="21.81" y="56.63" width="53.29" height=".32" style="fill:#f53397;"/><rect x="21.81" y="56.95" width="53.29" height=".32" style="fill:#f53396;"/><rect x="21.81" y="57.28" width="53.29" height=".32" style="fill:#f63395;"/><rect x="21.81" y="57.6" width="53.29" height=".32" style="fill:#f63394;"/><rect x="21.81" y="57.93" width="53.29" height=".32" style="fill:#f73293;"/><rect x="21.81" y="58.25" width="53.29" height=".32" style="fill:#f73292;"/><rect x="21.81" y="58.58" width="53.29" height=".32" style="fill:#f83291;"/><rect x="21.81" y="58.9" width="53.29" height=".32" style="fill:#f93190;"/><rect x="21.81" y="59.23" width="53.29" height=".32" style="fill:#f9318f;"/><rect x="21.81" y="59.55" width="53.29" height=".32" style="fill:#fa318e;"/><rect x="21.81" y="59.87" width="53.29" height=".32" style="fill:#fa318d;"/><rect x="21.81" y="60.2" width="53.29" height=".32" style="fill:#fb308c;"/><rect x="21.81" y="60.52" width="53.29" height=".32" style="fill:#fb308b;"/><rect x="21.81" y="60.85" width="53.29" height=".32" style="fill:#fc308a;"/><rect x="21.81" y="61.17" width="53.29" height=".32" style="fill:#fc2f89;"/><rect x="21.81" y="61.5" width="53.29" height=".32" style="fill:#fd2f88;"/><rect x="21.81" y="61.82" width="53.29" height=".32" style="fill:#fd2f87;"/><rect x="21.81" y="62.15" width="53.29" height=".32" style="fill:#fe2f86;"/><rect x="21.81" y="62.47" width="53.29" height=".32" style="fill:#fe2e85;"/><rect x="21.81" y="62.8" width="53.29" height=".18" style="fill:#ff2e84;"/><rect x="36.78" y="38.67" width="9.69" height=".11" style="fill:#d643d0;"/><rect x="36.78" y="38.78" width="9.69" height=".32" style="fill:#d743cf;"/><rect x="36.78" y="39.11" width="9.69" height=".32" style="fill:#d743ce;"/><rect x="36.78" y="39.43" width="9.69" height=".32" style="fill:#d842cd;"/><rect x="36.78" y="39.76" width="9.69" height=".32" style="fill:#d942cc;"/><rect x="36.78" y="40.08" width="9.69" height=".32" style="fill:#d942cb;"/><rect x="36.78" y="40.41" width="9.69" height=".32" style="fill:#da42ca;"/><rect x="36.78" y="40.73" width="9.69" height=".32" style="fill:#da41c9;"/><rect x="36.78" y="41.06" width="9.69" height=".32" style="fill:#db41c8;"/><rect x="36.78" y="41.38" width="9.69" height=".32" style="fill:#db41c7;"/><rect x="36.78" y="41.7" width="9.69" height=".32" style="fill:#dc40c6;"/><rect x="36.78" y="42.03" width="9.69" height=".32" style="fill:#dc40c5;"/><rect x="36.78" y="42.35" width="9.69" height=".32" style="fill:#dd40c4;"/><rect x="36.78" y="42.68" width="9.69" height=".32" style="fill:#dd40c3;"/><rect x="36.78" y="43" width="9.69" height=".32" style="fill:#de3fc2;"/><rect x="36.78" y="43.33" width="9.69" height=".32" style="fill:#df3fc1;"/><rect x="36.78" y="43.65" width="9.69" height=".32" style="fill:#df3fbf;"/><rect x="36.78" y="43.98" width="9.69" height=".32" style="fill:#e03ebe;"/><rect x="36.78" y="44.3" width="9.69" height=".32" style="fill:#e03ebd;"/><rect x="36.78" y="44.62" width="9.69" height=".32" style="fill:#e13ebc;"/><rect x="36.78" y="44.95" width="9.69" height=".32" style="fill:#e13ebb;"/><rect x="36.78" y="45.27" width="9.69" height=".32" style="fill:#e23dba;"/><rect x="36.78" y="45.6" width="9.69" height=".32" style="fill:#e23db9;"/><rect x="36.78" y="45.92" width="9.69" height=".32" style="fill:#e33db8;"/><rect x="36.78" y="46.25" width="9.69" height=".32" style="fill:#e33cb7;"/><rect x="36.78" y="46.57" width="9.69" height=".32" style="fill:#e43cb6;"/><rect x="36.78" y="46.9" width="9.69" height=".32" style="fill:#e43cb5;"/><rect x="36.78" y="47.22" width="9.69" height=".32" style="fill:#e53cb4;"/><rect x="36.78" y="47.55" width="9.69" height=".32" style="fill:#e63bb3;"/><rect x="36.78" y="47.87" width="9.69" height=".32" style="fill:#e63bb2;"/><rect x="36.78" y="48.19" width="9.69" height=".06" style="fill:#e73bb1;"/><rect x="50.44" y="38.67" width="9.69" height=".11" style="fill:#d643d0;"/><rect x="50.44" y="38.78" width="9.69" height=".32" style="fill:#d743cf;"/><rect x="50.44" y="39.11" width="9.69" height=".32" style="fill:#d743ce;"/><rect x="50.44" y="39.43" width="9.69" height=".32" style="fill:#d842cd;"/><rect x="50.44" y="39.76" width="9.69" height=".32" style="fill:#d942cc;"/><rect x="50.44" y="40.08" width="9.69" height=".32" style="fill:#d942cb;"/><rect x="50.44" y="40.41" width="9.69" height=".32" style="fill:#da42ca;"/><rect x="50.44" y="40.73" width="9.69" height=".32" style="fill:#da41c9;"/><rect x="50.44" y="41.06" width="9.69" height=".32" style="fill:#db41c8;"/><rect x="50.44" y="41.38" width="9.69" height=".32" style="fill:#db41c7;"/><rect x="50.44" y="41.7" width="9.69" height=".32" style="fill:#dc40c6;"/><rect x="50.44" y="42.03" width="9.69" height=".32" style="fill:#dc40c5;"/><rect x="50.44" y="42.35" width="9.69" height=".32" style="fill:#dd40c4;"/><rect x="50.44" y="42.68" width="9.69" height=".32" style="fill:#dd40c3;"/><rect x="50.44" y="43" width="9.69" height=".32" style="fill:#de3fc2;"/><rect x="50.44" y="43.33" width="9.69" height=".32" style="fill:#df3fc1;"/><rect x="50.44" y="43.65" width="9.69" height=".32" style="fill:#df3fbf;"/><rect x="50.44" y="43.98" width="9.69" height=".32" style="fill:#e03ebe;"/><rect x="50.44" y="44.3" width="9.69" height=".32" style="fill:#e03ebd;"/><rect x="50.44" y="44.62" width="9.69" height=".32" style="fill:#e13ebc;"/><rect x="50.44" y="44.95" width="9.69" height=".32" style="fill:#e13ebb;"/><rect x="50.44" y="45.27" width="9.69" height=".32" style="fill:#e23dba;"/><rect x="50.44" y="45.6" width="9.69" height=".32" style="fill:#e23db9;"/><rect x="50.44" y="45.92" width="9.69" height=".32" style="fill:#e33db8;"/><rect x="50.44" y="46.25" width="9.69" height=".32" style="fill:#e33cb7;"/><rect x="50.44" y="46.57" width="9.69" height=".32" style="fill:#e43cb6;"/><rect x="50.44" y="46.9" width="9.69" height=".32" style="fill:#e43cb5;"/><rect x="50.44" y="47.22" width="9.69" height=".32" style="fill:#e53cb4;"/><rect x="50.44" y="47.55" width="9.69" height=".32" style="fill:#e63bb3;"/><rect x="50.44" y="47.87" width="9.69" height=".32" style="fill:#e63bb2;"/><rect x="50.44" y="48.19" width="9.69" height=".06" style="fill:#e73bb1;"/></g><g style="clip-path:url(#c);"><rect x="35.59" y="66.3" width="6.62" height=".08" style="fill:#ff4478;"/><rect x="35.59" y="66.38" width="6.62" height=".38" style="fill:#ff4378;"/><rect x="35.59" y="66.76" width="6.62" height=".38" style="fill:#ff4279;"/><rect x="35.59" y="67.14" width="6.62" height=".38" style="fill:#ff4179;"/><rect x="35.59" y="67.52" width="6.62" height=".38" style="fill:#ff407a;"/><rect x="35.59" y="67.9" width="6.62" height=".38" style="fill:#ff3f7a;"/><rect x="35.59" y="68.28" width="6.62" height=".38" style="fill:#ff3e7b;"/><rect x="35.59" y="68.66" width="6.62" height=".38" style="fill:#ff3d7c;"/><rect x="35.59" y="69.04" width="6.62" height=".38" style="fill:#ff3c7c;"/><rect x="35.59" y="69.42" width="6.62" height=".38" style="fill:#ff3b7d;"/><rect x="35.59" y="69.8" width="6.62" height=".38" style="fill:#ff3a7d;"/><rect x="35.59" y="70.18" width="6.62" height=".38" style="fill:#ff397e;"/><rect x="35.59" y="70.56" width="6.62" height=".38" style="fill:#ff387f;"/><rect x="35.59" y="70.94" width="6.62" height=".38" style="fill:#ff377f;"/><rect x="35.59" y="71.32" width="6.62" height=".05" style="fill:#ff3680;"/><rect x="45.68" y="55.16" width="5.79" height=".21" style="fill:#ff6266;"/><rect x="45.68" y="55.37" width="5.79" height=".38" style="fill:#ff6167;"/><rect x="45.68" y="55.75" width="5.79" height=".38" style="fill:#ff6068;"/><rect x="45.68" y="56.13" width="5.79" height=".38" style="fill:#ff5f68;"/><rect x="45.68" y="56.51" width="5.79" height=".38" style="fill:#ff5e69;"/><rect x="45.68" y="56.89" width="5.79" height=".38" style="fill:#ff5d69;"/><rect x="45.68" y="57.27" width="5.79" height=".38" style="fill:#ff5c6a;"/><rect x="45.68" y="57.65" width="5.79" height=".38" style="fill:#ff5a6b;"/><rect x="45.68" y="58.03" width="5.79" height=".38" style="fill:#ff596b;"/><rect x="45.68" y="58.41" width="5.79" height=".38" style="fill:#ff586c;"/><rect x="45.68" y="58.79" width="5.79" height=".07" style="fill:#ff576c;"/><rect x="54.7" y="66.3" width="6.62" height=".08" style="fill:#ff4478;"/><rect x="54.7" y="66.38" width="6.62" height=".38" style="fill:#ff4378;"/><rect x="54.7" y="66.76" width="6.62" height=".38" style="fill:#ff4279;"/><rect x="54.7" y="67.14" width="6.62" height=".38" style="fill:#ff4179;"/><rect x="54.7" y="67.52" width="6.62" height=".38" style="fill:#ff407a;"/><rect x="54.7" y="67.9" width="6.62" height=".38" style="fill:#ff3f7a;"/><rect x="54.7" y="68.28" width="6.62" height=".38" style="fill:#ff3e7b;"/><rect x="54.7" y="68.66" width="6.62" height=".38" style="fill:#ff3d7c;"/><rect x="54.7" y="69.04" width="6.62" height=".38" style="fill:#ff3c7c;"/><rect x="54.7" y="69.42" width="6.62" height=".38" style="fill:#ff3b7d;"/><rect x="54.7" y="69.8" width="6.62" height=".38" style="fill:#ff3a7d;"/><rect x="54.7" y="70.18" width="6.62" height=".38" style="fill:#ff397e;"/><rect x="54.7" y="70.56" width="6.62" height=".38" style="fill:#ff387f;"/><rect x="54.7" y="70.94" width="6.62" height=".38" style="fill:#ff377f;"/><rect x="54.7" y="71.32" width="6.62" height=".05" style="fill:#ff3680;"/><rect x="27.03" y="53.47" width="42.85" height=".38" style="fill:#ff6664;"/><rect x="27.03" y="53.85" width="42.85" height=".38" style="fill:#ff6565;"/><rect x="27.03" y="54.23" width="42.85" height=".38" style="fill:#ff6465;"/><rect x="27.03" y="54.61" width="42.85" height=".38" style="fill:#ff6366;"/><rect x="27.03" y="54.99" width="42.85" height=".38" style="fill:#ff6266;"/><rect x="27.03" y="55.37" width="42.85" height=".38" style="fill:#ff6167;"/><rect x="27.03" y="55.75" width="42.85" height=".38" style="fill:#ff6068;"/><rect x="27.03" y="56.13" width="42.85" height=".38" style="fill:#ff5f68;"/><rect x="27.03" y="56.51" width="42.85" height=".38" style="fill:#ff5e69;"/><rect x="27.03" y="56.89" width="42.85" height=".38" style="fill:#ff5d69;"/><rect x="27.03" y="57.27" width="42.85" height=".38" style="fill:#ff5c6a;"/><rect x="27.03" y="57.65" width="42.85" height=".38" style="fill:#ff5a6b;"/><rect x="27.03" y="58.03" width="42.85" height=".38" style="fill:#ff596b;"/><rect x="27.03" y="58.41" width="42.85" height=".38" style="fill:#ff586c;"/><rect x="27.03" y="58.79" width="42.85" height=".38" style="fill:#ff576c;"/><rect x="27.03" y="59.17" width="42.85" height=".38" style="fill:#ff566d;"/><rect x="27.03" y="59.55" width="42.85" height=".38" style="fill:#ff556e;"/><rect x="27.03" y="59.93" width="42.85" height=".38" style="fill:#ff546e;"/><rect x="27.03" y="60.31" width="42.85" height=".38" style="fill:#ff536f;"/><rect x="27.03" y="60.69" width="42.85" height=".38" style="fill:#ff526f;"/><rect x="27.03" y="61.07" width="42.85" height=".38" style="fill:#ff5170;"/><rect x="27.03" y="61.45" width="42.85" height=".38" style="fill:#ff5071;"/><rect x="27.03" y="61.83" width="42.85" height=".38" style="fill:#ff4f71;"/><rect x="27.03" y="62.21" width="42.85" height=".38" style="fill:#ff4e72;"/><rect x="27.03" y="62.59" width="42.85" height=".38" style="fill:#ff4d72;"/><rect x="27.03" y="62.97" width="42.85" height=".38" style="fill:#ff4c73;"/><rect x="27.03" y="63.35" width="42.85" height=".38" style="fill:#ff4b73;"/><rect x="27.03" y="63.73" width="42.85" height=".38" style="fill:#ff4a74;"/><rect x="27.03" y="64.11" width="42.85" height=".38" style="fill:#ff4975;"/><rect x="27.03" y="64.49" width="42.85" height=".38" style="fill:#ff4875;"/><rect x="27.03" y="64.87" width="42.85" height=".38" style="fill:#ff4776;"/><rect x="27.03" y="65.25" width="42.85" height=".38" style="fill:#ff4676;"/><rect x="27.03" y="65.63" width="42.85" height=".38" style="fill:#ff4577;"/><rect x="27.03" y="66" width="42.85" height=".38" style="fill:#ff4478;"/><rect x="27.03" y="66.38" width="42.85" height=".38" style="fill:#ff4378;"/><rect x="27.03" y="66.76" width="42.85" height=".38" style="fill:#ff4279;"/><rect x="27.03" y="67.14" width="42.85" height=".38" style="fill:#ff4179;"/><rect x="27.03" y="67.52" width="42.85" height=".38" style="fill:#ff407a;"/><rect x="27.03" y="67.9" width="42.85" height=".38" style="fill:#ff3f7a;"/><rect x="27.03" y="68.28" width="42.85" height=".38" style="fill:#ff3e7b;"/><rect x="27.03" y="68.66" width="42.85" height=".38" style="fill:#ff3d7c;"/><rect x="27.03" y="69.04" width="42.85" height=".38" style="fill:#ff3c7c;"/><rect x="27.03" y="69.42" width="42.85" height=".38" style="fill:#ff3b7d;"/><rect x="27.03" y="69.8" width="42.85" height=".38" style="fill:#ff3a7d;"/><rect x="27.03" y="70.18" width="42.85" height=".38" style="fill:#ff397e;"/><rect x="27.03" y="70.56" width="42.85" height=".38" style="fill:#ff387f;"/><rect x="27.03" y="70.94" width="42.85" height=".38" style="fill:#ff377f;"/><rect x="27.03" y="71.32" width="42.85" height=".38" style="fill:#ff3680;"/><rect x="27.03" y="71.7" width="42.85" height=".38" style="fill:#ff3580;"/><rect x="27.03" y="72.08" width="42.85" height=".38" style="fill:#ff3481;"/><rect x="27.03" y="72.46" width="42.85" height=".38" style="fill:#ff3381;"/><rect x="27.03" y="72.84" width="42.85" height=".38" style="fill:#ff3282;"/><rect x="27.03" y="73.22" width="42.85" height=".38" style="fill:#ff3182;"/><rect x="27.03" y="73.6" width="42.85" height=".38" style="fill:#ff3083;"/><rect x="27.03" y="73.98" width="42.85" height=".38" style="fill:#ff2f83;"/><rect x="27.03" y="74.36" width="42.85" height=".38" style="fill:#ff2e84;"/><rect x="27.03" y="74.74" width="42.85" height=".36" style="fill:#ff2e84;"/></g><g><path d="M68.36,28.54c-5.32-5.32-12.39-8.25-19.91-8.25s-14.59,2.93-19.91,8.25c-5.32,5.32-8.25,12.39-8.25,19.91s2.93,14.59,8.25,19.91c5.32,5.32,12.39,8.25,19.91,8.25s14.59-2.93,19.91-8.25c5.32-5.32,8.25-12.39,8.25-19.91s-2.93-14.59-8.25-19.91Zm-19.91,46.56c-4.39,0-8.53-1.07-12.18-2.95-3.65-1.88-6.82-4.59-9.25-7.87,1.93-2.61,4.3-4.8,6.96-6.52,.32,1.15,.62,1.68,.62,1.68,0,0-.22,1.8,.57,3.16,0,0,.14,2.85,1.76,2.43,1.68-.37,.71-2.54-.08-3.18,0,0,.03-1.8-.38-2.79,0,0,.29-1.01,.22-1.65,0,0,.7-.63,1.04,0,0,0,.06,1.42,.82,2.37,0,0,0,1.74,.76,2.69,0,0,.11,2.69,1.72,2.14,1.56-.43,.21-2.56-.13-2.81,0,0,0-1.61-.63-2.5,0,0,.09-1.87-.28-2.72,0,0,.13-.47,.57-.03,0,0,.44,.98,1.27,1.65,0,0,.66,1.17,1.33,1.52-.05,.8,1.32,2.38,2.32,1.34,.67-.69-.45-2.16-1.28-2.39,0,0-.54-1.05-1.14-1.65,0,0-.29-1.14-.76-2.18,0,0,.12-.22,.2-.69,1.94-.45,3.94-.68,5.96-.68s4.02,.23,5.96,.68c.08,.46,.2,.69,.2,.69-.47,1.04-.76,2.18-.76,2.18-.6,.6-1.14,1.65-1.14,1.65-.83,.23-1.95,1.7-1.28,2.39,1,1.04,2.38-.54,2.32-1.34,.66-.35,1.33-1.52,1.33-1.52,.82-.66,1.27-1.65,1.27-1.65,.44-.44,.57,.03,.57,.03-.38,.85-.28,2.72-.28,2.72-.63,.89-.63,2.5-.63,2.5-.35,.25-1.7,2.38-.13,2.81,1.6,.55,1.72-2.14,1.72-2.14,.76-.95,.76-2.69,.76-2.69,.76-.95,.82-2.37,.82-2.37,.35-.63,1.04,0,1.04,0-.06,.63,.22,1.65,.22,1.65-.41,.98-.38,2.79-.38,2.79-.79,.64-1.77,2.82-.08,3.18,1.63,.42,1.76-2.43,1.76-2.43,.79-1.36,.57-3.16,.57-3.16,0,0,.3-.53,.62-1.68,2.66,1.72,5.03,3.92,6.96,6.52-4.86,6.56-12.65,10.82-21.43,10.82Zm-5.7-34.11c3.46,2.28,3.72,5.32,3.03,5.81-2,1.45-6.13-.23-7.27-2.03-1.73-2.72,.73-6.1,4.24-3.78Zm11.41,0c3.51-2.32,5.97,1.06,4.24,3.78-1.14,1.8-5.27,3.48-7.27,2.03-.68-.49-.43-3.53,3.03-5.81Zm16.63,21.98c-2.09-2.72-4.68-5.05-7.59-6.85,0-.87-.25-1.94-.88-2.94-.62-1-1.63-1.91-3.14-2.44,2.17-2.17,4.2-4.23,3.54-9.81-.53-4.47-4.28-11.84-14.26-11.84s-13.73,7.37-14.26,11.84c-.66,5.57,1.37,7.64,3.54,9.81-3.03,1.07-4.01,3.65-4.02,5.38-2.91,1.8-5.5,4.13-7.59,6.85h0c-2.73-4.18-4.31-9.17-4.31-14.52,0-14.69,11.95-26.65,26.65-26.65s26.65,11.95,26.65,26.65c0,5.35-1.58,10.34-4.31,14.52h0Z"/><path d="M60.03,67.38c-.22-.18-.53-.14-.71,.07-.18,.22-.14,.53,.07,.71,.47,.38,.73,.85,.72,1.24-.11-.14-.23-.28-.37-.41-.41-.38-.94-.7-1.54-.91-.81-.28-1.63-.32-2.32-.14,.27-.38,.89-.59,1.64-.52,.28,.02,.52-.18,.54-.46s-.18-.52-.46-.54c-1.36-.11-2.45,.43-2.78,1.4-.08,.24-.11,.49-.09,.75l-.02,.02,.06,.21c.04,.18,.1,.37,.19,.55h0c.08,.16,.17,.31,.28,.45h.01s.05,.08,.08,.11h0v.02h.01s.03,.04,.05,.06h0l.02,.02s.04,.04,.06,.06h0s.04,.05,.07,.07l.03,.03s.03,.03,.05,.05c.02,.02,.05,.05,.07,.07,.04,.03,.07,.06,.11,.09h0v.02h.02l.04,.03h.02s.06,.06,.09,.08c.02,.02,.04,.03,.06,.04,.01,.01,.03,.02,.04,.03l.03,.02h.02s.03,.03,.05,.05c.04,.03,.08,.05,.12,.08,.09,.05,.18,.1,.27,.15,.04,.02,.09,.04,.14,.07h0s.08,.04,.12,.06l.04,.02s.07,.03,.11,.04l.04,.02s.07,.02,.1,.04h.02c.49,.18,.98,.26,1.44,.26,.74,0,1.4-.21,1.86-.6h.02l.18-.15v-.03h0c.17-.19,.3-.4,.39-.64,.29-.85-.09-1.83-.99-2.57Z"/><path d="M49.53,55.22c-.27-.06-.54,.12-.6,.39-.06,.27,.12,.54,.39,.6,.71,.15,1.14,.49,1.14,.73,0,.05-.02,.11-.06,.17-.45-.32-1.11-.51-1.82-.51s-1.38,.19-1.82,.51c-.04-.06-.06-.12-.06-.17,0-.2,.3-.5,.89-.67,.27-.08,.42-.36,.34-.63-.08-.27-.36-.42-.63-.34-.99,.3-1.6,.92-1.6,1.64,0,.64,.47,1.18,1.22,1.5h0c.44,.27,1.03,.42,1.67,.42s1.23-.15,1.67-.42c.75-.32,1.22-.86,1.22-1.5,0-.8-.76-1.48-1.94-1.72Z"/><path d="M42.09,67.82c-.33-.96-1.43-1.51-2.78-1.4-.28,.02-.48,.27-.46,.54s.27,.48,.54,.46c.75-.06,1.37,.14,1.64,.52-.28-.07-.57-.11-.88-.11-.46,0-.95,.08-1.44,.25-.81,.28-1.48,.75-1.91,1.32-.01-.39,.25-.86,.72-1.24,.22-.18,.25-.49,.07-.71-.18-.22-.49-.25-.71-.07-.91,.74-1.29,1.72-.99,2.57,.08,.24,.21,.46,.39,.64h0v.03l.17,.13h0l.02,.02c.2,.16,.43,.29,.7,.39h.01s.07,.03,.11,.04h.03c.11,.04,.22,.07,.34,.09,.04,0,.07,.01,.11,.02,.04,0,.07,.01,.11,.02h0s.07,0,.11,.01c.04,0,.08,0,.11,0,.07,0,.15,0,.23,0,.06,0,.12,0,.18,0,.05,0,.11,0,.16-.01h.03c.05,0,.11-.01,.16-.02h0c.06,0,.12-.02,.18-.03,.04,0,.09-.02,.13-.03,.04,0,.07-.02,.11-.02,.04,0,.08-.02,.12-.03,.03,0,.06-.02,.09-.02,.09-.03,.18-.05,.27-.08,.04-.01,.08-.03,.11-.04,.01,0,.03,0,.04-.01h0l.05-.02s.04-.01,.05-.02h.01s.09-.04,.14-.06h0s.07-.04,.11-.05h.01l.02-.02s.06-.03,.09-.05h.02c.93-.5,1.57-1.26,1.73-2.05l.06-.22-.02-.02c.02-.25,0-.5-.09-.74Z"/></g><g><polygon points="68.39 37.05 69.47 36.61 68.39 36.18 69.01 35.2 67.88 35.48 67.8 34.32 67.06 35.22 66.32 34.32 66.24 35.48 65.11 35.2 65.73 36.18 64.65 36.61 65.73 37.05 65.11 38.03 66.24 37.75 66.32 38.9 67.06 38.01 67.8 38.9 67.88 37.75 69.01 38.03 68.39 37.05" style="fill:#fff;"/><polygon points="72.78 50.32 71.7 49.89 72.32 48.91 71.19 49.19 71.11 48.03 70.37 48.92 69.63 48.03 69.55 49.19 68.42 48.91 69.04 49.89 67.96 50.32 69.04 50.75 68.42 51.74 69.55 51.45 69.62 52.61 70.37 51.72 71.11 52.61 71.19 51.45 72.32 51.74 71.7 50.75 72.78 50.32" style="fill:#fff;"/><polygon points="31.17 36.18 31.79 35.2 30.67 35.48 30.59 34.32 29.84 35.22 29.1 34.32 29.02 35.48 27.9 35.2 28.51 36.18 27.44 36.61 28.51 37.05 27.9 38.03 29.02 37.75 29.1 38.9 29.84 38.01 30.59 38.9 30.67 37.75 31.79 38.03 31.17 37.05 32.25 36.61 31.17 36.18" style="fill:#fff;"/><polygon points="27.87 49.89 28.48 48.91 27.36 49.19 27.28 48.03 26.54 48.92 25.79 48.03 25.71 49.19 24.59 48.91 25.21 49.89 24.13 50.32 25.21 50.75 24.59 51.74 25.71 51.45 25.79 52.61 26.54 51.72 27.28 52.61 27.36 51.45 28.48 51.74 27.87 50.75 28.94 50.32 27.87 49.89" style="fill:#fff;"/></g><path d="M38.98,42.89s.43-2.09,2.23-1.55,4.6,3.32,3.75,4.82c0,0,.37-.99-2.66-3.2-1.97-1.67-3.32-.07-3.32-.07Z" style="fill:#fff;"/><path d="M57.92,42.89s-.43-2.09-2.23-1.55-4.6,3.32-3.75,4.82c0,0-.37-.99,2.66-3.2,1.97-1.67,3.32-.07,3.32-.07Z" style="fill:#fff;"/><path d="M62.61,58.73c.1-.25,.2-.58,.32-.98,2.66,1.72,5.03,3.92,6.96,6.52-.19,.26-.39,.51-.59,.76-1.83-2.48-4.1-4.62-6.68-6.31Zm-28.31,0c-.1-.25-.2-.58-.32-.98-2.66,1.72-5.03,3.92-6.96,6.52,.19,.26,.39,.51,.59,.76,1.83-2.48,4.1-4.62,6.68-6.31Zm14.15-4.21c2.06,0,4.07,.24,5.99,.7,.05-.13,.11-.26,.16-.38,0,0-.12-.22-.2-.69-1.94-.45-3.94-.68-5.96-.68s-4.02,.23-5.96,.68c-.08,.47-.2,.69-.2,.69,.06,.13,.11,.26,.16,.38,1.92-.46,3.93-.7,5.99-.7Z" style="fill:#fff;"/></g></svg>